<?xml version="1.0" encoding="UTF-8"?>
<svg viewBox="0 0 512 512" xmlns="http://www.w3.org/2000/svg" xmlns:xlink="http://www.w3.org/1999/xlink" version="1.1">
	<g id="group">
		<g id="group-1">
			<path id="Path" d="M429.784 385.16 C359.527 411.759 177.08 422.165 80.558 385.545 44.959 372.039 22.237 352.852 13.023 328.517 -7.425 274.507 19.878 213.931 73.888 193.483 83.146 189.978 92.772 187.818 102.499 187.025 101.16 143.437 127.343 102.209 170.155 86 205.536 72.604 245.185 79.591 273.791 103.068 276.468 101.786 279.201 100.617 281.984 99.563 335.994 79.115 396.569 106.418 417.018 160.428 419.423 166.78 421.194 173.278 422.326 179.876 457.561 186.648 487.765 211.382 500.75 245.68 510.494 271.416 509.232 299.361 497.196 324.367 486.221 347.171 466.704 366.806 442.24 379.655 438.623 381.554 434.448 383.394 429.784 385.16 Z" fill="#eee1dc" fill-opacity="1" stroke="none" />
		</g>
		<path id="Path-1" d="M422.908 180.457 C421.776 173.857 420.005 167.36 417.6 161.008 397.151 106.998 336.576 79.695 282.566 100.144 279.782 101.197 277.05 102.367 274.373 103.648 248.286 82.239 213.016 74.552 180.173 83.522 L303.037 408.036 C355.103 404.62 401.927 396.509 430.366 385.741 435.031 383.975 439.206 382.135 442.823 380.236 467.287 367.387 486.804 347.753 497.779 324.949 509.814 299.942 511.077 271.997 501.333 246.262 488.347 211.964 458.143 187.229 422.908 180.457 Z" fill="#e0d2cd" fill-opacity="1" stroke="none" />
	</g>
</svg>
