<?xml version="1.0" encoding="UTF-8"?>
<svg width="512px" height="512px" viewBox="0 0 512 512" xmlns="http://www.w3.org/2000/svg" xmlns:xlink="http://www.w3.org/1999/xlink" version="1.1">
 <!-- Generated by Pixelmator Pro 1.5.4 -->
 <g id="group">
  <g id="group-1">
   <path id="Path" d="M255.034 437.094 C234.833 437.094 215.063 430.117 199.37 417.449 191.254 410.898 184.384 402.966 179.053 394.119 167.545 401.141 154.186 405.021 140.434 405.021 107.393 405.021 78.934 383.039 69.581 352.625 54.33 351.046 39.79 344.765 28.106 334.444 12.197 320.391 3.072 300.153 3.072 278.919 3.072 240.549 32.387 208.898 69.793 205.18 73.636 193.063 80.573 182.061 90.086 173.248 103.82 160.523 121.701 153.516 140.434 153.516 154.057 153.516 167.306 157.33 178.748 164.235 184.063 155.277 190.95 147.24 199.114 140.599 214.854 127.796 234.715 120.746 255.035 120.746 275.356 120.746 295.217 127.796 310.956 140.599 319.121 147.24 326.007 155.279 331.323 164.235 342.764 157.331 356.013 153.516 369.637 153.516 388.37 153.516 406.25 160.524 419.985 173.248 429.501 182.065 436.44 193.068 440.281 205.192 455.597 206.734 470.205 213.018 481.94 223.373 497.866 237.427 507 257.673 507 278.919 507 300.153 497.875 320.391 481.965 334.444 470.282 344.763 455.74 351.044 440.49 352.624 431.137 383.038 402.677 405.02 369.637 405.02 355.884 405.02 342.524 401.138 331.018 394.117 325.687 402.965 318.817 410.897 310.701 417.448 295.005 430.116 275.237 437.094 255.034 437.094 Z" fill="#fff4f4" fill-opacity="1" stroke="none"/>
  </g>
 </g>
</svg>
